# This file uses centimeters as units for non-parametric coordinates.

mtllib bossRArmTop.mtl
g default
v -83.866189 9.221810 58.322547
v -75.772134 43.548744 30.023879
v -81.429666 -37.276207 67.676016
v -64.590013 -72.423805 20.107421
v -97.369363 27.252648 -58.018604
v -97.450784 -13.451210 -60.655248
v -80.672341 -50.955238 -43.902578
v -138.276284 5.802590 -36.266332
v -95.327279 46.657555 -13.998811
v -132.920541 22.713112 -4.640664
v -132.718423 -27.744468 -39.850267
v -119.971292 -42.195427 58.504386
v -112.296304 -71.324074 25.487769
v -127.012155 -0.508644 51.607504
v -153.459603 -46.505943 50.540549
v -167.291207 -11.087898 44.869704
v -125.952401 20.081032 23.334494
v -166.313699 7.684517 12.094840
v -170.252358 -16.001808 -17.535802
v -165.723794 -38.924568 -21.859018
v -143.494058 -72.418800 28.785727
v -198.425057 -33.296104 33.706565
v -181.484414 -56.405601 48.788855
v -196.430978 -30.250251 14.655501
v -193.881143 -34.541984 -5.137048
v -185.432473 -52.687172 -14.529657
v -160.349862 -85.117515 30.935683
v -120.856149 -59.468696 -22.238840
v -152.815896 -61.899330 -6.451593
v -171.965249 -72.963585 -3.081140
v -43.840501 16.259438 73.735861
v -34.772264 48.889534 64.166434
v -46.248765 -23.993217 76.925070
v -41.863053 -56.728386 51.546240
v -56.867158 -33.961158 -71.706060
v -49.120530 -59.448524 -60.444232
v -37.648637 -67.090095 22.718176
v -33.553544 -72.536949 -16.222074
v -68.787301 5.945275 -83.143976
v -57.694169 65.821755 -59.173818
v -63.174378 79.593575 -22.937280
v -45.538377 99.655434 25.485831
v 0.262313 0.200539 0.079199
v -203.872476 -52.180320 15.048392
vt 0.667160 0.462576
vt 0.627469 0.468397
vt 0.662069 0.434352
vt 0.635592 0.440110
vt 0.627275 0.413755
vt 0.649275 0.405203
vt 0.593087 0.400373
vt 0.620797 0.388658
vt 0.565004 0.479552
vt 0.532517 0.477770
vt 0.553832 0.459659
vt 0.531080 0.442785
vt 0.535786 0.417522
vt 0.555290 0.430358
vt 0.596154 0.385638
vt 0.136616 0.689069
vt 0.141056 0.726503
vt 0.108040 0.686202
vt 0.103425 0.728060
vt 0.076678 0.710064
vt 0.083134 0.674299
vt 0.207174 0.642048
vt 0.231434 0.614259
vt 0.227732 0.667123
vt 0.264453 0.635042
vt 0.181689 0.666836
vt 0.202060 0.696249
vt 0.163760 0.639911
vt 0.188366 0.620673
vt 0.139516 0.658093
vt 0.159635 0.685136
vt 0.109376 0.651195
vt 0.090734 0.642247
vt 0.208829 0.599741
vt 0.148021 0.616205
vt 0.172899 0.601646
vt 0.131855 0.624643
vt 0.112710 0.626872
vt 0.092676 0.621322
vt 0.198883 0.581600
vt 0.565134 0.391440
vt 0.045753 0.698167
vt 0.056050 0.660306
vt 0.066157 0.630819
vt 0.071363 0.610556
vt 0.023235 0.637613
vt 0.000500 0.669460
vt 0.038403 0.616343
vt 0.043211 0.599210
vt 0.567528 0.515448
vt 0.598446 0.507070
vt 0.596279 0.481987
vt 0.640847 0.508854
vt 0.179422 0.726158
vt 0.000000 0.000000
vt 1.000000 0.000000
vt 0.500000 1.000000
vt 0.000000 0.000000
vt 1.000000 0.000000
vt 0.500000 1.000000
vt 0.000000 0.000000
vt 1.000000 0.000000
vt 0.500000 1.000000
vt 0.000000 0.000000
vt 1.000000 0.000000
vt 0.500000 1.000000
vt 0.000000 0.000000
vt 1.000000 0.000000
vt 0.500000 1.000000
vt 0.000000 0.000000
vt 1.000000 0.000000
vt 0.500000 1.000000
vt 0.000000 0.000000
vt 1.000000 0.000000
vt 0.500000 1.000000
vt 0.000000 0.000000
vt 1.000000 0.000000
vt 0.500000 1.000000
vt 0.000000 0.000000
vt 1.000000 0.000000
vt 0.500000 1.000000
vt 0.000000 0.000000
vt 1.000000 0.000000
vt 0.500000 1.000000
vt 0.000000 0.000000
vt 1.000000 0.000000
vt 0.500000 1.000000
vt 0.000000 0.000000
vt 1.000000 0.000000
vt 0.500000 1.000000
vt 0.000000 0.000000
vt 1.000000 0.000000
vt 0.500000 1.000000
vt 0.000000 0.000000
vt 1.000000 0.000000
vt 0.500000 1.000000
vt 0.000000 0.000000
vt 1.000000 0.000000
vt 0.500000 1.000000
vt 0.000000 0.000000
vt 1.000000 0.000000
vt 0.500000 1.000000
vt 0.000000 0.000000
vt 1.000000 0.000000
vt 0.500000 1.000000
vt 0.000000 0.000000
vt 1.000000 0.000000
vt 0.500000 1.000000
vt 0.000000 0.000000
vt 1.000000 0.000000
vt 0.500000 1.000000
vn -0.644914 0.415336 0.641546
vn -0.608202 0.616319 0.500242
vn -0.585682 0.285946 0.758427
vn -0.585682 0.285946 0.758427
vn -0.608202 0.616319 0.500242
vn -0.331695 0.449203 0.829575
vn -0.154206 -0.391591 0.907126
vn -0.423314 -0.209342 0.881465
vn -0.331695 0.449203 0.829575
vn -0.331695 0.449203 0.829575
vn -0.423314 -0.209342 0.881465
vn -0.585682 0.285946 0.758427
vn -0.055315 -0.990134 0.128742
vn -0.343803 -0.767869 0.540533
vn -0.154206 -0.391591 0.907126
vn -0.154206 -0.391591 0.907126
vn -0.343803 -0.767869 0.540533
vn -0.423314 -0.209342 0.881465
vn -0.600939 0.504187 -0.620216
vn -0.638003 0.120513 -0.760545
vn -0.467839 -0.241686 -0.850126
vn -0.731478 -0.406126 -0.547724
vn -0.726106 -0.676394 -0.123538
vn -0.258008 -0.820226 -0.510550
vn -0.290712 -0.935786 0.199478
vn -0.343803 -0.767869 0.540533
vn -0.055315 -0.990134 0.128742
vn -0.542308 0.829783 -0.131769
vn -0.618830 0.785434 -0.011924
vn -0.626186 0.469390 -0.622546
vn -0.626186 0.469390 -0.622546
vn -0.618830 0.785434 -0.011924
vn -0.600939 0.504187 -0.620216
vn -0.600939 0.504187 -0.620216
vn -0.467839 -0.241686 -0.850126
vn -0.626186 0.469390 -0.622546
vn -0.626186 0.469390 -0.622546
vn -0.467839 -0.241686 -0.850126
vn -0.396812 -0.304492 -0.865924
vn -0.159890 -0.339238 0.927013
vn 0.002288 -0.974034 0.226390
vn -0.154206 -0.391591 0.907126
vn -0.154206 -0.391591 0.907126
vn 0.002288 -0.974034 0.226390
vn -0.055315 -0.990134 0.128742
vn -0.159890 -0.339238 0.927013
vn -0.154206 -0.391591 0.907126
vn -0.264718 0.473106 0.840294
vn -0.264718 0.473106 0.840294
vn -0.154206 -0.391591 0.907126
vn -0.331695 0.449203 0.829575
vn -0.445435 0.506624 0.738187
vn -0.088595 -0.201395 0.975495
vn -0.264718 0.473106 0.840294
vn -0.264718 0.473106 0.840294
vn -0.088595 -0.201395 0.975495
vn -0.159890 -0.339238 0.927013
vn -0.618689 0.785510 0.014071
vn -0.445435 0.506624 0.738187
vn -0.383574 0.820471 0.423908
vn -0.383574 0.820471 0.423908
vn -0.445435 0.506624 0.738187
vn -0.264718 0.473106 0.840294
vn -0.542308 0.829783 -0.131769
vn -0.618689 0.785510 0.014071
vn -0.383574 0.820471 0.423908
vn -0.626186 0.469390 -0.622546
vn -0.656443 0.447093 -0.607611
vn -0.542308 0.829783 -0.131769
vn -0.542308 0.829783 -0.131769
vn -0.656443 0.447093 -0.607611
vn -0.618689 0.785510 0.014071
vn -0.345208 -0.286533 -0.893717
vn -0.656443 0.447093 -0.607611
vn -0.396812 -0.304492 -0.865924
vn -0.396812 -0.304492 -0.865924
vn -0.656443 0.447093 -0.607611
vn -0.626186 0.469390 -0.622546
vn -0.088595 -0.201395 0.975495
vn 0.223291 -0.934086 0.278613
vn -0.159890 -0.339238 0.927013
vn -0.159890 -0.339238 0.927013
vn 0.223291 -0.934086 0.278613
vn 0.002288 -0.974034 0.226390
vn -0.407570 0.627528 0.663396
vn 0.009410 0.101509 0.994790
vn -0.445435 0.506624 0.738187
vn -0.445435 0.506624 0.738187
vn 0.009410 0.101509 0.994790
vn -0.088595 -0.201395 0.975495
vn -0.407570 0.627528 0.663396
vn -0.445435 0.506624 0.738187
vn -0.598271 0.800906 -0.024927
vn -0.598271 0.800906 -0.024927
vn -0.445435 0.506624 0.738187
vn -0.618689 0.785510 0.014071
vn -0.396115 0.534773 -0.746399
vn -0.598271 0.800906 -0.024927
vn -0.656443 0.447093 -0.607611
vn -0.656443 0.447093 -0.607611
vn -0.598271 0.800906 -0.024927
vn -0.618689 0.785510 0.014071
vn -0.656443 0.447093 -0.607611
vn -0.345208 -0.286533 -0.893717
vn -0.396115 0.534773 -0.746399
vn -0.396115 0.534773 -0.746399
vn -0.345208 -0.286533 -0.893717
vn -0.132406 -0.145181 -0.980506
vn 0.009410 0.101509 0.994790
vn 0.830532 -0.438618 0.343265
vn -0.088595 -0.201395 0.975495
vn -0.088595 -0.201395 0.975495
vn 0.830532 -0.438618 0.343265
vn 0.223291 -0.934086 0.278613
vn -0.520112 -0.853823 -0.021693
vn -0.290712 -0.935786 0.199478
vn -0.055315 -0.990134 0.128742
vn -0.638003 0.120513 -0.760545
vn -0.731478 -0.406126 -0.547724
vn -0.467839 -0.241686 -0.850126
vn -0.467839 -0.241686 -0.850126
vn -0.731478 -0.406126 -0.547724
vn -0.258008 -0.820226 -0.510550
vn -0.467839 -0.241686 -0.850126
vn -0.258008 -0.820226 -0.510550
vn -0.396812 -0.304492 -0.865924
vn -0.396812 -0.304492 -0.865924
vn -0.258008 -0.820226 -0.510550
vn -0.123571 -0.860037 -0.495042
vn -0.000878 -0.847533 -0.530742
vn -0.345208 -0.286533 -0.893717
vn -0.123571 -0.860037 -0.495042
vn -0.123571 -0.860037 -0.495042
vn -0.345208 -0.286533 -0.893717
vn -0.396812 -0.304492 -0.865924
vn 0.503052 -0.417600 -0.756670
vn -0.132406 -0.145181 -0.980506
vn -0.000878 -0.847533 -0.530742
vn -0.000878 -0.847533 -0.530742
vn -0.132406 -0.145181 -0.980506
vn -0.345208 -0.286533 -0.893717
vn -0.726106 -0.676394 -0.123538
vn -0.520112 -0.853823 -0.021693
vn -0.258008 -0.820226 -0.510550
vn -0.258008 -0.820226 -0.510550
vn -0.520112 -0.853823 -0.021693
vn -0.055315 -0.990134 0.128742
vn 0.002288 -0.974034 0.226390
vn -0.123571 -0.860037 -0.495042
vn -0.055315 -0.990134 0.128742
vn -0.055315 -0.990134 0.128742
vn -0.123571 -0.860037 -0.495042
vn -0.258008 -0.820226 -0.510550
vn 0.223291 -0.934086 0.278613
vn -0.000878 -0.847533 -0.530742
vn 0.002288 -0.974034 0.226390
vn 0.002288 -0.974034 0.226390
vn -0.000878 -0.847533 -0.530742
vn -0.123571 -0.860037 -0.495042
vn -0.000878 -0.847533 -0.530742
vn 0.223291 -0.934086 0.278613
vn 0.503052 -0.417600 -0.756670
vn 0.503052 -0.417600 -0.756670
vn 0.223291 -0.934086 0.278613
vn 0.830532 -0.438618 0.343265
vn -0.687606 0.452980 -0.567458
vn -0.638003 0.120513 -0.760545
vn -0.600939 0.504187 -0.620216
vn -0.910114 0.413372 0.028562
vn -0.687606 0.452980 -0.567458
vn -0.618830 0.785434 -0.011924
vn -0.618830 0.785434 -0.011924
vn -0.687606 0.452980 -0.567458
vn -0.600939 0.504187 -0.620216
vn -0.731444 0.405848 0.547976
vn -0.910114 0.413372 0.028562
vn -0.608202 0.616319 0.500242
vn -0.608202 0.616319 0.500242
vn -0.910114 0.413372 0.028562
vn -0.618830 0.785434 -0.011924
vn -0.608202 0.616319 0.500242
vn -0.644914 0.415336 0.641546
vn -0.731444 0.405848 0.547976
vn -0.264718 0.473106 0.840294
vn -0.331695 0.449203 0.829575
vn -0.383574 0.820471 0.423908
vn -0.383574 0.820471 0.423908
vn -0.331695 0.449203 0.829575
vn -0.608202 0.616319 0.500242
vn -0.542308 0.829783 -0.131769
vn -0.383574 0.820471 0.423908
vn -0.618830 0.785434 -0.011924
vn -0.618830 0.785434 -0.011924
vn -0.383574 0.820471 0.423908
vn -0.608202 0.616319 0.500242
vn 0.847181 -0.081467 0.525021
vn 0.847181 -0.081467 0.525021
vn 0.847181 -0.081467 0.525021
vn 0.856910 -0.010436 0.515360
vn 0.856910 -0.010436 0.515360
vn 0.856910 -0.010436 0.515360
vn 0.862760 -0.232501 0.448987
vn 0.862760 -0.232501 0.448987
vn 0.862760 -0.232501 0.448987
vn 0.789237 -0.031111 -0.613300
vn 0.789237 -0.031111 -0.613300
vn 0.789237 -0.031111 -0.613300
vn 0.874638 -0.401226 0.272078
vn 0.874638 -0.401226 0.272078
vn 0.874638 -0.401226 0.272078
vn 0.882104 -0.444827 0.154986
vn 0.882104 -0.444827 0.154986
vn 0.882105 -0.444827 0.154986
vn 0.770337 0.047858 -0.635839
vn 0.770337 0.047858 -0.635839
vn 0.770337 0.047858 -0.635839
vn 0.863266 -0.312503 -0.396376
vn 0.863266 -0.312503 -0.396376
vn 0.863266 -0.312503 -0.396376
vn 0.768653 0.109864 -0.630161
vn 0.768653 0.109864 -0.630161
vn 0.768653 0.109864 -0.630161
vn 0.791743 0.601103 -0.108713
vn 0.791743 0.601103 -0.108713
vn 0.791743 0.601103 -0.108713
vn 0.751961 0.465523 -0.466737
vn 0.751961 0.465523 -0.466736
vn 0.751961 0.465523 -0.466736
vn 0.906047 0.360730 0.221252
vn 0.906047 0.360730 0.221252
vn 0.906047 0.360730 0.221252
vn -0.818026 -0.267253 0.509323
vn -0.818026 -0.267253 0.509323
vn -0.818026 -0.267253 0.509323
vn -0.946143 0.320195 -0.047841
vn -0.946143 0.320195 -0.047841
vn -0.946143 0.320195 -0.047841
vn -0.931147 0.312600 -0.187741
vn -0.931147 0.312600 -0.187741
vn -0.931147 0.312600 -0.187741
vn -0.843234 -0.121580 -0.523618
vn -0.843234 -0.121580 -0.523618
vn -0.843234 -0.121580 -0.523618
vn -0.643263 -0.685524 0.340982
vn -0.643264 -0.685524 0.340982
vn -0.643263 -0.685524 0.340982
vn -0.648148 -0.652329 -0.392901
vn -0.648148 -0.652329 -0.392901
vn -0.648148 -0.652329 -0.392901
vn -0.579479 -0.809837 -0.091480
vn -0.579479 -0.809837 -0.091480
vn -0.579479 -0.809837 -0.091480
s off
g bossRArmTop
usemtl lambert2SG
f 32/1/1 2/2/2 31/3/3
f 31/3/4 2/2/5 1/4/6
f 3/5/7 33/6/8 1/4/9
f 1/4/10 33/6/11 31/3/12
f 4/7/13 34/8/14 3/5/15
f 3/5/16 34/8/17 33/6/18
f 5/9/19 39/10/20 6/11/21
f 35/12/22 36/13/23 7/14/24
f 37/15/25 34/8/26 4/7/27
f 10/16/28 9/17/29 8/18/30
f 8/18/31 9/17/32 5/19/33
f 5/19/34 6/20/35 8/18/36
f 8/18/37 6/20/38 11/21/39
f 12/22/40 13/23/41 3/24/42
f 3/24/43 13/23/44 4/25/45
f 12/22/46 3/24/47 14/26/48
f 14/26/49 3/24/50 1/27/51
f 16/28/52 15/29/53 14/26/54
f 14/26/55 15/29/56 12/22/57
f 18/30/58 16/28/59 17/31/60
f 17/31/61 16/28/62 14/26/63
f 10/16/64 18/30/65 17/31/66
f 8/18/67 19/32/68 10/16/69
f 10/16/70 19/32/71 18/30/72
f 20/33/73 19/32/74 11/21/75
f 11/21/76 19/32/77 8/18/78
f 15/29/79 21/34/80 12/22/81
f 12/22/82 21/34/83 13/23/84
f 22/35/85 23/36/86 16/28/87
f 16/28/88 23/36/89 15/29/90
f 22/35/91 16/28/92 24/37/93
f 24/37/94 16/28/95 18/30/96
f 25/38/97 24/37/98 19/32/99
f 19/32/100 24/37/101 18/30/102
f 19/32/103 20/33/104 25/38/105
f 25/38/106 20/33/107 26/39/108
f 23/36/109 27/40/110 15/29/111
f 15/29/112 27/40/113 21/34/114
f 38/41/115 37/15/116 4/7/117
f 39/10/118 35/12/119 6/11/120
f 6/11/121 35/12/122 7/14/123
f 6/20/124 7/42/125 11/21/126
f 11/21/127 7/42/128 28/43/129
f 29/44/130 20/33/131 28/43/132
f 28/43/133 20/33/134 11/21/135
f 30/45/136 26/39/137 29/44/138
f 29/44/139 26/39/140 20/33/141
f 36/13/142 38/41/143 7/14/144
f 7/14/145 38/41/146 4/7/147
f 13/46/148 28/43/149 4/47/150
f 4/47/151 28/43/152 7/42/153
f 21/48/154 29/44/155 13/46/156
f 13/46/157 29/44/158 28/43/159
f 29/44/160 21/48/161 30/45/162
f 30/45/163 21/48/164 27/49/165
f 40/50/166 39/10/167 5/9/168
f 41/51/169 40/50/170 9/52/171
f 9/52/172 40/50/173 5/9/174
f 42/53/175 41/51/176 2/2/177
f 2/2/178 41/51/179 9/52/180
f 2/2/181 32/1/182 42/53/183
f 14/26/184 1/27/185 17/31/186
f 17/31/187 1/27/188 2/54/189
f 10/16/190 17/31/191 9/17/192
f 9/17/193 17/31/194 2/54/195
f 32/55/196 31/56/197 43/57/198
f 31/58/199 33/59/200 43/60/201
f 33/61/202 34/62/203 43/63/204
f 36/64/205 35/65/206 43/66/207
f 34/67/208 37/68/209 43/69/210
f 37/70/211 38/71/212 43/72/213
f 35/73/214 39/74/215 43/75/216
f 38/76/217 36/77/218 43/78/219
f 39/79/220 40/80/221 43/81/222
f 40/82/223 41/83/224 43/84/225
f 41/85/226 42/86/227 43/87/228
f 42/88/229 32/89/230 43/90/231
f 23/91/232 22/92/233 44/93/234
f 22/94/235 24/95/236 44/96/237
f 24/97/238 25/98/239 44/99/240
f 25/100/241 26/101/242 44/102/243
f 27/103/244 23/104/245 44/105/246
f 26/106/247 30/107/248 44/108/249
f 30/109/250 27/110/251 44/111/252
