# This file uses centimeters as units for non-parametric coordinates.

mtllib bossLArmTop.mtl
g default
v 120.950554 1.460110 51.085526
v 119.890770 22.049786 22.812531
v 69.710503 45.517498 29.501915
v 113.909660 -40.226673 57.982407
v 106.234673 -69.355324 24.965790
v 126.858940 24.681866 -5.162644
v 89.265648 48.626324 -14.520783
v 132.214661 7.771343 -36.788307
v 126.656792 -25.775715 -40.372246
v 114.794518 -57.499943 -22.760818
v 91.307732 29.221401 -58.540581
v 91.389153 -11.482441 -61.177227
v 74.610710 -48.986485 -44.424561
v 58.528370 -70.455070 19.585449
v 75.368034 -35.307453 67.154037
v 77.804558 11.190548 57.800568
v 147.397980 -44.537189 50.018570
v 161.229584 -9.119144 44.347725
v 160.252075 9.653271 11.572860
v 164.190735 -14.033054 -18.057777
v 159.662170 -36.955814 -22.380997
v 146.754272 -59.930576 -6.973572
v 137.432434 -70.450050 28.263748
v 175.422791 -54.436863 48.266876
v 192.363434 -31.327366 33.184586
v 190.369354 -28.281513 14.133514
v 187.819519 -32.573246 -5.659028
v 179.370850 -50.718433 -15.051636
v 165.903656 -70.994843 -3.603119
v 154.288239 -83.148773 30.413704
v 28.710634 50.858288 63.644455
v 37.778873 18.228191 73.213882
v 40.187138 -22.024464 76.403091
v 35.801422 -54.759632 51.024261
v 43.058903 -57.479771 -60.966213
v 50.805531 -31.992405 -72.228043
v 31.587008 -65.121346 22.196198
v 27.491915 -70.568192 -16.744053
v 62.725674 7.914028 -83.665955
v 51.632542 67.790504 -59.695797
v 57.112747 81.562325 -23.459259
v 39.476749 101.624184 24.963852
v -1.344297 2.169292 -0.442780
v 195.164261 -64.473450 14.526414
vt 0.635392 0.194649
vt 0.627310 0.166634
vt 0.662004 0.200445
vt 0.667303 0.172358
vt 0.626908 0.220656
vt 0.649063 0.229469
vt 0.592867 0.234621
vt 0.620640 0.246071
vt 0.564846 0.154685
vt 0.553520 0.175407
vt 0.532459 0.157867
vt 0.530710 0.192805
vt 0.554680 0.205141
vt 0.535433 0.218074
vt 0.596013 0.249350
vt 0.900632 0.856615
vt 0.862047 0.857666
vt 0.892897 0.815179
vt 0.864249 0.820115
vt 0.917119 0.801316
vt 0.926682 0.836264
vt 0.790865 0.776775
vt 0.770664 0.802185
vt 0.766395 0.749369
vt 0.733500 0.769394
vt 0.798284 0.830804
vt 0.817550 0.800432
vt 0.808792 0.754586
vt 0.834185 0.772578
vt 0.840744 0.817522
vt 0.859399 0.789325
vt 0.889039 0.780375
vt 0.907002 0.770025
vt 0.787637 0.734344
vt 0.848388 0.747842
vt 0.822959 0.734594
vt 0.864992 0.755211
vt 0.884151 0.756281
vt 0.903616 0.749289
vt 0.796228 0.715785
vt 0.564954 0.243860
vt 0.943064 0.784728
vt 0.957398 0.820779
vt 0.930474 0.756504
vt 0.923980 0.736847
vt 0.973210 0.757864
vt 0.999501 0.785893
vt 0.956540 0.739203
vt 0.950823 0.723057
vt 0.566885 0.117393
vt 0.598183 0.127368
vt 0.595821 0.152417
vt 0.641208 0.127737
vt 0.823056 0.859560
vt 0.000000 0.000000
vt 1.000000 0.000000
vt 0.500000 1.000000
vt 0.000000 0.000000
vt 1.000000 0.000000
vt 0.500000 1.000000
vt 0.000000 0.000000
vt 1.000000 0.000000
vt 0.500000 1.000000
vt 0.000000 0.000000
vt 1.000000 0.000000
vt 0.500000 1.000000
vt 0.000000 0.000000
vt 1.000000 0.000000
vt 0.500000 1.000000
vt 0.000000 0.000000
vt 1.000000 0.000000
vt 0.500000 1.000000
vt 0.000000 0.000000
vt 1.000000 0.000000
vt 0.500000 1.000000
vt 0.000000 0.000000
vt 1.000000 0.000000
vt 0.500000 1.000000
vt 0.000000 0.000000
vt 1.000000 0.000000
vt 0.500000 1.000000
vt 0.000000 0.000000
vt 1.000000 0.000000
vt 0.500000 1.000000
vt 0.000000 0.000000
vt 1.000000 0.000000
vt 0.500000 1.000000
vt 0.000000 0.000000
vt 1.000000 0.000000
vt 0.500000 1.000000
vt 0.000000 0.000000
vt 1.000000 0.000000
vt 0.500000 1.000000
vt 0.000000 0.000000
vt 1.000000 0.000000
vt 0.500000 1.000000
vt 0.000000 0.000000
vt 1.000000 0.000000
vt 0.500000 1.000000
vt 0.000000 0.000000
vt 1.000000 0.000000
vt 0.500000 1.000000
vt 0.000000 0.000000
vt 1.000000 0.000000
vt 0.500000 1.000000
vt 0.000000 0.000000
vt 1.000000 0.000000
vt 0.500000 1.000000
vt 0.000000 0.000000
vt 1.000000 0.000000
vt 0.500000 1.000000
vn 0.331695 0.449203 0.829575
vn 0.608202 0.616319 0.500242
vn 0.585682 0.285946 0.758427
vn 0.585682 0.285946 0.758427
vn 0.608202 0.616319 0.500242
vn 0.644914 0.415336 0.641546
vn 0.154206 -0.391591 0.907126
vn 0.331695 0.449203 0.829575
vn 0.423314 -0.209342 0.881465
vn 0.423314 -0.209342 0.881465
vn 0.331695 0.449203 0.829575
vn 0.585682 0.285946 0.758427
vn 0.055315 -0.990134 0.128742
vn 0.154206 -0.391591 0.907126
vn 0.343803 -0.767869 0.540533
vn 0.343803 -0.767869 0.540533
vn 0.154206 -0.391591 0.907126
vn 0.423314 -0.209342 0.881465
vn 0.600939 0.504187 -0.620216
vn 0.467840 -0.241686 -0.850126
vn 0.638003 0.120513 -0.760545
vn 0.731478 -0.406126 -0.547724
vn 0.258008 -0.820226 -0.510550
vn 0.726106 -0.676394 -0.123538
vn 0.290712 -0.935786 0.199478
vn 0.055315 -0.990134 0.128742
vn 0.343803 -0.767869 0.540533
vn 0.600939 0.504187 -0.620216
vn 0.618830 0.785434 -0.011924
vn 0.626186 0.469390 -0.622546
vn 0.626186 0.469390 -0.622546
vn 0.618830 0.785434 -0.011924
vn 0.542308 0.829782 -0.131769
vn 0.396812 -0.304491 -0.865925
vn 0.467840 -0.241686 -0.850126
vn 0.626186 0.469390 -0.622546
vn 0.626186 0.469390 -0.622546
vn 0.467840 -0.241686 -0.850126
vn 0.600939 0.504187 -0.620216
vn 0.159890 -0.339238 0.927013
vn 0.154206 -0.391591 0.907126
vn -0.002288 -0.974034 0.226390
vn -0.002288 -0.974034 0.226390
vn 0.154206 -0.391591 0.907126
vn 0.055315 -0.990134 0.128742
vn 0.331695 0.449203 0.829575
vn 0.154206 -0.391591 0.907126
vn 0.264718 0.473106 0.840294
vn 0.264718 0.473106 0.840294
vn 0.154206 -0.391591 0.907126
vn 0.159890 -0.339238 0.927013
vn 0.159890 -0.339238 0.927013
vn 0.088595 -0.201395 0.975495
vn 0.264718 0.473106 0.840294
vn 0.264718 0.473106 0.840294
vn 0.088595 -0.201395 0.975495
vn 0.445435 0.506624 0.738187
vn 0.264718 0.473106 0.840294
vn 0.445435 0.506624 0.738187
vn 0.383574 0.820471 0.423908
vn 0.383574 0.820471 0.423908
vn 0.445435 0.506624 0.738187
vn 0.618689 0.785510 0.014071
vn 0.542308 0.829782 -0.131769
vn 0.383574 0.820471 0.423908
vn 0.618689 0.785510 0.014071
vn 0.626186 0.469390 -0.622546
vn 0.542308 0.829782 -0.131769
vn 0.656443 0.447093 -0.607611
vn 0.656443 0.447093 -0.607611
vn 0.542308 0.829782 -0.131769
vn 0.618689 0.785510 0.014071
vn 0.626186 0.469390 -0.622546
vn 0.656443 0.447093 -0.607611
vn 0.396812 -0.304491 -0.865925
vn 0.396812 -0.304491 -0.865925
vn 0.656443 0.447093 -0.607611
vn 0.345208 -0.286533 -0.893717
vn -0.002288 -0.974034 0.226390
vn -0.223291 -0.934086 0.278613
vn 0.159890 -0.339238 0.927013
vn 0.159890 -0.339238 0.927013
vn -0.223291 -0.934086 0.278613
vn 0.088595 -0.201395 0.975495
vn 0.407570 0.627528 0.663396
vn 0.445435 0.506624 0.738187
vn -0.009410 0.101509 0.994790
vn -0.009410 0.101509 0.994790
vn 0.445435 0.506624 0.738187
vn 0.088595 -0.201395 0.975495
vn 0.618689 0.785510 0.014071
vn 0.445435 0.506624 0.738187
vn 0.598271 0.800906 -0.024927
vn 0.598271 0.800906 -0.024927
vn 0.445435 0.506624 0.738187
vn 0.407570 0.627528 0.663396
vn 0.396115 0.534773 -0.746399
vn 0.656443 0.447093 -0.607611
vn 0.598271 0.800906 -0.024927
vn 0.598271 0.800906 -0.024927
vn 0.656443 0.447093 -0.607611
vn 0.618689 0.785510 0.014071
vn 0.656443 0.447093 -0.607611
vn 0.396115 0.534773 -0.746399
vn 0.345208 -0.286533 -0.893717
vn 0.345208 -0.286533 -0.893717
vn 0.396115 0.534773 -0.746399
vn 0.132406 -0.145181 -0.980506
vn -0.009410 0.101509 0.994790
vn 0.088595 -0.201395 0.975495
vn -0.830532 -0.438618 0.343265
vn -0.830532 -0.438618 0.343265
vn 0.088595 -0.201395 0.975495
vn -0.223291 -0.934086 0.278613
vn 0.520112 -0.853823 -0.021693
vn 0.055315 -0.990134 0.128742
vn 0.290712 -0.935786 0.199478
vn 0.258008 -0.820226 -0.510550
vn 0.731478 -0.406126 -0.547724
vn 0.467840 -0.241686 -0.850126
vn 0.467840 -0.241686 -0.850126
vn 0.731478 -0.406126 -0.547724
vn 0.638003 0.120513 -0.760545
vn 0.123571 -0.860037 -0.495042
vn 0.258008 -0.820226 -0.510550
vn 0.396812 -0.304491 -0.865925
vn 0.396812 -0.304491 -0.865925
vn 0.258008 -0.820226 -0.510550
vn 0.467840 -0.241686 -0.850126
vn 0.396812 -0.304491 -0.865925
vn 0.345208 -0.286533 -0.893717
vn 0.123571 -0.860037 -0.495042
vn 0.123571 -0.860037 -0.495042
vn 0.345208 -0.286533 -0.893717
vn 0.000878 -0.847533 -0.530742
vn -0.503052 -0.417600 -0.756670
vn 0.000878 -0.847533 -0.530742
vn 0.132406 -0.145181 -0.980506
vn 0.132406 -0.145181 -0.980506
vn 0.000878 -0.847533 -0.530742
vn 0.345208 -0.286533 -0.893717
vn 0.055315 -0.990134 0.128742
vn 0.520112 -0.853823 -0.021693
vn 0.258008 -0.820226 -0.510550
vn 0.258008 -0.820226 -0.510550
vn 0.520112 -0.853823 -0.021693
vn 0.726106 -0.676394 -0.123538
vn -0.002288 -0.974034 0.226390
vn 0.055315 -0.990134 0.128742
vn 0.123571 -0.860037 -0.495042
vn 0.123571 -0.860037 -0.495042
vn 0.055315 -0.990134 0.128742
vn 0.258008 -0.820226 -0.510550
vn 0.123571 -0.860037 -0.495042
vn 0.000878 -0.847533 -0.530742
vn -0.002288 -0.974034 0.226390
vn -0.002288 -0.974034 0.226390
vn 0.000878 -0.847533 -0.530742
vn -0.223291 -0.934086 0.278613
vn -0.830532 -0.438618 0.343265
vn -0.223291 -0.934086 0.278613
vn -0.503052 -0.417600 -0.756670
vn -0.503052 -0.417600 -0.756670
vn -0.223291 -0.934086 0.278613
vn 0.000878 -0.847533 -0.530742
vn 0.638003 0.120513 -0.760545
vn 0.687606 0.452980 -0.567458
vn 0.600939 0.504187 -0.620216
vn 0.910114 0.413372 0.028562
vn 0.618830 0.785434 -0.011924
vn 0.687606 0.452980 -0.567458
vn 0.687606 0.452980 -0.567458
vn 0.618830 0.785434 -0.011924
vn 0.600939 0.504187 -0.620216
vn 0.618830 0.785434 -0.011924
vn 0.910114 0.413372 0.028562
vn 0.608202 0.616319 0.500242
vn 0.608202 0.616319 0.500242
vn 0.910114 0.413372 0.028562
vn 0.731444 0.405848 0.547976
vn 0.608202 0.616319 0.500242
vn 0.731444 0.405848 0.547976
vn 0.644914 0.415336 0.641546
vn 0.264718 0.473106 0.840294
vn 0.383574 0.820471 0.423908
vn 0.331695 0.449203 0.829575
vn 0.331695 0.449203 0.829575
vn 0.383574 0.820471 0.423908
vn 0.608202 0.616319 0.500242
vn 0.608202 0.616319 0.500242
vn 0.383574 0.820471 0.423908
vn 0.618830 0.785434 -0.011924
vn 0.618830 0.785434 -0.011924
vn 0.383574 0.820471 0.423908
vn 0.542308 0.829782 -0.131769
vn -0.869559 -0.099824 0.483635
vn -0.869559 -0.099824 0.483635
vn -0.869559 -0.099824 0.483635
vn -0.881653 -0.015380 0.471648
vn -0.881653 -0.015380 0.471648
vn -0.881653 -0.015380 0.471648
vn -0.886724 -0.203151 0.415272
vn -0.886724 -0.203151 0.415271
vn -0.886724 -0.203151 0.415272
vn -0.811573 -0.011438 -0.584139
vn -0.811573 -0.011438 -0.584139
vn -0.811573 -0.011438 -0.584139
vn -0.899190 -0.353126 0.258379
vn -0.899190 -0.353126 0.258379
vn -0.899190 -0.353126 0.258379
vn -0.907030 -0.393291 0.150399
vn -0.907030 -0.393291 0.150399
vn -0.907030 -0.393291 0.150399
vn -0.792905 0.063133 -0.606066
vn -0.792905 0.063133 -0.606066
vn -0.792905 0.063133 -0.606066
vn -0.883048 -0.262971 -0.388680
vn -0.883048 -0.262971 -0.388680
vn -0.883048 -0.262971 -0.388680
vn -0.791971 0.094737 -0.603165
vn -0.791971 0.094737 -0.603165
vn -0.791971 0.094737 -0.603165
vn -0.814536 0.572389 -0.094352
vn -0.814536 0.572389 -0.094352
vn -0.814536 0.572389 -0.094352
vn -0.772884 0.435198 -0.461793
vn -0.772884 0.435198 -0.461793
vn -0.772884 0.435198 -0.461793
vn -0.925261 0.333684 0.180409
vn -0.925261 0.333684 0.180409
vn -0.925261 0.333684 0.180409
vn 0.806120 -0.237082 0.542183
vn 0.806120 -0.237082 0.542183
vn 0.806120 -0.237082 0.542183
vn 0.988064 0.130008 -0.082636
vn 0.988063 0.130008 -0.082636
vn 0.988063 0.130008 -0.082636
vn 0.979728 0.128128 -0.153999
vn 0.979728 0.128128 -0.153999
vn 0.979728 0.128128 -0.153999
vn 0.848452 -0.129396 -0.513211
vn 0.848452 -0.129396 -0.513211
vn 0.848452 -0.129396 -0.513211
vn 0.513364 -0.692795 0.506450
vn 0.513365 -0.692795 0.506451
vn 0.513365 -0.692795 0.506450
vn 0.498687 -0.653032 -0.569965
vn 0.498687 -0.653032 -0.569965
vn 0.498687 -0.653032 -0.569965
vn 0.336366 -0.917349 -0.212906
vn 0.336366 -0.917349 -0.212906
vn 0.336366 -0.917349 -0.212906
s off
g bossLArmTop
usemtl lambert2SG
f 16/1/1 3/2/2 32/3/3
f 32/3/4 3/2/5 31/4/6
f 15/5/7 16/1/8 33/6/9
f 33/6/10 16/1/11 32/3/12
f 14/7/13 15/5/14 34/8/15
f 34/8/16 15/5/17 33/6/18
f 11/9/19 12/10/20 39/11/21
f 36/12/22 13/13/23 35/14/24
f 37/15/25 14/7/26 34/8/27
f 11/16/28 7/17/29 8/18/30
f 8/18/31 7/17/32 6/19/33
f 9/20/34 12/21/35 8/18/36
f 8/18/37 12/21/38 11/16/39
f 4/22/40 15/23/41 5/24/42
f 5/24/43 15/23/44 14/25/45
f 16/26/46 15/23/47 1/27/48
f 1/27/49 15/23/50 4/22/51
f 4/22/52 17/28/53 1/27/54
f 1/27/55 17/28/56 18/29/57
f 1/27/58 18/29/59 2/30/60
f 2/30/61 18/29/62 19/31/63
f 6/19/64 2/30/65 19/31/66
f 8/18/67 6/19/68 20/32/69
f 20/32/70 6/19/71 19/31/72
f 8/18/73 20/32/74 9/20/75
f 9/20/76 20/32/77 21/33/78
f 5/24/79 23/34/80 4/22/81
f 4/22/82 23/34/83 17/28/84
f 25/35/85 18/29/86 24/36/87
f 24/36/88 18/29/89 17/28/90
f 19/31/91 18/29/92 26/37/93
f 26/37/94 18/29/95 25/35/96
f 27/38/97 20/32/98 26/37/99
f 26/37/100 20/32/101 19/31/102
f 20/32/103 27/38/104 21/33/105
f 21/33/106 27/38/107 28/39/108
f 24/36/109 17/28/110 30/40/111
f 30/40/112 17/28/113 23/34/114
f 38/41/115 14/7/116 37/15/117
f 13/13/118 36/12/119 12/10/120
f 12/10/121 36/12/122 39/11/123
f 10/42/124 13/43/125 9/20/126
f 9/20/127 13/43/128 12/21/129
f 9/20/130 21/33/131 10/42/132
f 10/42/133 21/33/134 22/44/135
f 29/45/136 22/44/137 28/39/138
f 28/39/139 22/44/140 21/33/141
f 14/7/142 38/41/143 13/13/144
f 13/13/145 38/41/146 35/14/147
f 5/46/148 14/47/149 10/42/150
f 10/42/151 14/47/152 13/43/153
f 10/42/154 22/44/155 5/46/156
f 5/46/157 22/44/158 23/48/159
f 30/49/160 23/48/161 29/45/162
f 29/45/163 23/48/164 22/44/165
f 39/11/166 40/50/167 11/9/168
f 41/51/169 7/52/170 40/50/171
f 40/50/172 7/52/173 11/9/174
f 7/52/175 41/51/176 3/2/177
f 3/2/178 41/51/179 42/53/180
f 3/2/181 42/53/182 31/4/183
f 1/27/184 2/30/185 16/26/186
f 16/26/187 2/30/188 3/54/189
f 3/54/190 2/30/191 7/17/192
f 7/17/193 2/30/194 6/19/195
f 32/55/196 31/56/197 43/57/198
f 33/58/199 32/59/200 43/60/201
f 34/61/202 33/62/203 43/63/204
f 36/64/205 35/65/206 43/66/207
f 37/67/208 34/68/209 43/69/210
f 38/70/211 37/71/212 43/72/213
f 39/73/214 36/74/215 43/75/216
f 35/76/217 38/77/218 43/78/219
f 40/79/220 39/80/221 43/81/222
f 41/82/223 40/83/224 43/84/225
f 42/85/226 41/86/227 43/87/228
f 31/88/229 42/89/230 43/90/231
f 25/91/232 24/92/233 44/93/234
f 26/94/235 25/95/236 44/96/237
f 27/97/238 26/98/239 44/99/240
f 28/100/241 27/101/242 44/102/243
f 24/103/244 30/104/245 44/105/246
f 29/106/247 28/107/248 44/108/249
f 30/109/250 29/110/251 44/111/252
