# This file uses centimeters as units for non-parametric coordinates.

mtllib bossTail.mtl
g default
v 47.565010 7.479725 -74.498464
v 23.519367 32.225026 -74.516408
v 0.000000 34.499226 -74.615682
v 46.255730 -37.208057 -78.725179
v 27.883898 -65.793850 -71.398717
v 32.650932 -15.087078 -130.629659
v 0.000000 11.975483 -111.360677
v 35.371758 -52.757778 -129.217916
v 18.213764 -77.011348 -118.148214
v 0.000000 -72.979549 -63.855657
v 0.000000 -79.226772 -103.928884
v 26.459494 -76.030224 -188.624562
v 22.743376 -45.119968 -193.651296
v 21.650528 -101.694839 -262.483632
v 16.324205 -79.826580 -265.524923
v 14.585980 -121.427305 -343.306966
v 11.788936 -109.970932 -346.127156
v 8.801644 -126.424940 -405.071004
v 4.900148 -119.764333 -408.101888
v 0.000000 -28.501903 -181.865438
v -0.000000 -137.175310 -340.026693
v -0.000000 -119.809208 -253.109517
v 0.000000 -94.506920 -171.616780
v 0.000000 -136.547367 -403.541707
v 0.000000 -69.119793 -257.717031
v -0.000000 -104.050193 -344.800923
v 0.000000 -117.427963 -406.411153
v 0.000000 -120.855575 -469.252828
v -47.565010 7.479725 -74.498464
v -23.519367 32.225026 -74.516408
v -46.255730 -37.208057 -78.725179
v -27.883898 -65.793850 -71.398717
v -32.650932 -15.087078 -130.629659
v -35.371758 -52.757778 -129.217916
v -18.213764 -77.011348 -118.148214
v -26.459494 -76.030224 -188.624562
v -22.743376 -45.119968 -193.651296
v -21.650528 -101.694839 -262.483632
v -16.324205 -79.826580 -265.524923
v -14.585980 -121.427305 -343.306966
v -11.788936 -109.970932 -346.127156
v -4.900148 -119.764333 -408.101888
v -8.801644 -126.424940 -405.071004
v 49.718166 36.027073 -41.687322
v 65.974457 10.412510 -36.959691
v 23.885443 50.557042 -37.744878
v 0.000000 59.337864 -40.633611
v 57.411896 -31.635212 -36.880864
v 36.284782 -58.704609 -25.535131
v -0.000000 -72.317112 -26.295842
v -65.974457 10.412510 -36.959691
v -49.718166 36.027073 -41.687322
v -23.885443 50.557042 -37.744878
v -57.411896 -31.635212 -36.880864
v -36.284782 -58.704609 -25.535131
v 0.000000 0.027851 0.388347
vt 0.320820 0.211440
vt 0.343418 0.177447
vt 0.353692 0.205427
vt 0.334806 0.151211
vt 0.311192 0.181681
vt 0.321323 0.134703
vt 0.297954 0.167386
vt 0.317598 0.254771
vt 0.351275 0.244989
vt 0.321214 0.288614
vt 0.357611 0.279510
vt 0.275364 0.196235
vt 0.276033 0.236764
vt 0.276950 0.271247
vt 0.282836 0.299480
vt 0.326135 0.317418
vt 0.355385 0.317520
vt 0.293570 0.317204
vt 0.225758 0.259903
vt 0.226630 0.286552
vt 0.165807 0.272506
vt 0.164990 0.291022
vt 0.098261 0.284753
vt 0.099793 0.294749
vt 0.047693 0.294063
vt 0.051179 0.299857
vt 0.229682 0.235471
vt 0.170962 0.256041
vt 0.100433 0.312818
vt 0.168317 0.315049
vt 0.236676 0.316587
vt 0.052858 0.310911
vt 0.098124 0.273657
vt 0.047924 0.289284
vt 0.000500 0.308613
vt 0.319624 0.423243
vt 0.352304 0.429586
vt 0.342331 0.457539
vt 0.309862 0.452993
vt 0.333583 0.483737
vt 0.296565 0.467224
vt 0.320034 0.500197
vt 0.316917 0.379888
vt 0.350932 0.389859
vt 0.357417 0.355553
vt 0.320908 0.346131
vt 0.274668 0.397340
vt 0.273805 0.437994
vt 0.276089 0.362862
vt 0.282532 0.334749
vt 0.224106 0.372898
vt 0.225712 0.346235
vt 0.163836 0.357412
vt 0.163892 0.338869
vt 0.096478 0.340670
vt 0.098658 0.330812
vt 0.046449 0.327257
vt 0.050366 0.321781
vt 0.227574 0.397539
vt 0.168220 0.374168
vt 0.095638 0.351715
vt 0.046324 0.332035
vt 0.000000 0.000000
vt 1.000000 0.000000
vt 0.500000 1.000000
vt 0.000000 0.000000
vt 1.000000 0.000000
vt 0.500000 1.000000
vt 0.000000 0.000000
vt 1.000000 0.000000
vt 0.500000 1.000000
vt 0.000000 0.000000
vt 1.000000 0.000000
vt 0.500000 1.000000
vt 0.000000 0.000000
vt 1.000000 0.000000
vt 0.500000 1.000000
vt 0.000000 0.000000
vt 1.000000 0.000000
vt 0.500000 1.000000
vt 0.000000 0.000000
vt 1.000000 0.000000
vt 0.500000 1.000000
vt 0.000000 0.000000
vt 1.000000 0.000000
vt 0.500000 1.000000
vt 0.000000 0.000000
vt 1.000000 0.000000
vt 0.500000 1.000000
vt 0.000000 0.000000
vt 1.000000 0.000000
vt 0.500000 1.000000
vt 0.000000 0.000000
vt 1.000000 0.000000
vt 0.500000 1.000000
vt 0.000000 0.000000
vt 1.000000 0.000000
vt 0.500000 1.000000
vn 0.833049 0.318590 -0.452250
vn 0.510574 0.567115 -0.646293
vn 0.494021 0.178893 -0.850847
vn 0.296675 0.750139 -0.590995
vn 0.510574 0.567115 -0.646293
vn 0.403644 0.719399 -0.565276
vn 0.403644 0.719399 -0.565276
vn 0.510574 0.567115 -0.646293
vn 0.833049 0.318590 -0.452250
vn 0.000000 0.761082 -0.648656
vn 0.296675 0.750139 -0.590995
vn 0.000000 0.859569 -0.511019
vn 0.000000 0.859569 -0.511019
vn 0.296675 0.750139 -0.590995
vn 0.403644 0.719399 -0.565276
vn 0.953730 -0.235837 -0.186496
vn 0.833049 0.318590 -0.452250
vn 0.702268 -0.427534 -0.569240
vn 0.702268 -0.427534 -0.569240
vn 0.833049 0.318590 -0.452250
vn 0.494021 0.178893 -0.850847
vn 0.953730 -0.235837 -0.186496
vn 0.702268 -0.427534 -0.569240
vn 0.631362 -0.775390 0.012345
vn 0.631362 -0.775390 0.012345
vn 0.702268 -0.427534 -0.569240
vn 0.515996 -0.848348 -0.118551
vn 0.403644 0.719399 -0.565276
vn 0.833049 0.318590 -0.452250
vn 0.000000 0.849275 -0.527950
vn 0.000000 0.849275 -0.527950
vn 0.833049 0.318590 -0.452250
vn 0.750089 0.530313 -0.395139
vn 0.403644 0.719399 -0.565276
vn 0.000000 0.849275 -0.527950
vn 0.000000 0.859569 -0.511019
vn 0.833049 0.318590 -0.452250
vn 0.953730 -0.235837 -0.186496
vn 0.750089 0.530313 -0.395139
vn 0.750089 0.530313 -0.395139
vn 0.953730 -0.235837 -0.186496
vn 0.958428 -0.261082 -0.115115
vn 0.629757 -0.775247 0.048967
vn 0.958428 -0.261082 -0.115115
vn 0.631362 -0.775390 0.012345
vn 0.631362 -0.775390 0.012345
vn 0.958428 -0.261082 -0.115115
vn 0.953730 -0.235837 -0.186496
vn 0.000000 -0.996908 0.078574
vn 0.631362 -0.775390 0.012345
vn 0.000000 -0.998249 -0.059159
vn 0.000000 -0.998249 -0.059159
vn 0.631362 -0.775390 0.012345
vn 0.515996 -0.848348 -0.118551
vn 0.629757 -0.775247 0.048967
vn 0.631362 -0.775390 0.012345
vn 0.000000 -0.982016 0.188797
vn 0.000000 -0.982016 0.188797
vn 0.631362 -0.775390 0.012345
vn 0.000000 -0.996908 0.078574
vn 0.750089 0.530313 -0.395139
vn 0.958428 -0.261082 -0.115115
vn 0.797037 0.500121 -0.338541
vn 0.797037 0.500121 -0.338541
vn 0.958428 -0.261082 -0.115115
vn 0.910608 -0.409606 0.054915
vn 0.797037 0.500121 -0.338541
vn 0.910608 -0.409606 0.054915
vn 0.793133 0.545892 -0.270080
vn 0.793133 0.545892 -0.270080
vn 0.910608 -0.409606 0.054915
vn 0.924626 -0.377870 0.047770
vn 0.793133 0.545892 -0.270080
vn 0.924626 -0.377870 0.047770
vn 0.782124 0.583848 -0.217724
vn 0.782124 0.583848 -0.217724
vn 0.924626 -0.377870 0.047770
vn 0.911409 -0.411431 -0.007600
vn 0.723062 0.680556 -0.118426
vn 0.782124 0.583848 -0.217724
vn 0.937218 -0.325747 -0.124548
vn 0.937218 -0.325747 -0.124548
vn 0.782124 0.583848 -0.217724
vn 0.911409 -0.411431 -0.007600
vn 0.000000 0.849275 -0.527950
vn 0.750089 0.530313 -0.395139
vn 0.000000 0.876046 -0.482228
vn 0.000000 0.876046 -0.482228
vn 0.750089 0.530313 -0.395139
vn 0.797037 0.500121 -0.338541
vn 0.000000 0.876046 -0.482228
vn 0.797037 0.500121 -0.338541
vn 0.000000 0.900856 -0.434118
vn 0.000000 0.900856 -0.434118
vn 0.797037 0.500121 -0.338541
vn 0.793133 0.545892 -0.270080
vn 0.911409 -0.411431 -0.007600
vn 0.924626 -0.377870 0.047770
vn 0.000000 -0.995328 0.096551
vn 0.000000 -0.995328 0.096551
vn 0.924626 -0.377870 0.047770
vn 0.000000 -0.970191 0.242342
vn 0.924626 -0.377870 0.047770
vn 0.910608 -0.409606 0.054915
vn 0.000000 -0.970191 0.242342
vn 0.000000 -0.970191 0.242342
vn 0.910608 -0.409606 0.054915
vn 0.000000 -0.970943 0.239310
vn 0.910608 -0.409606 0.054915
vn 0.958428 -0.261082 -0.115115
vn 0.000000 -0.970943 0.239310
vn 0.000000 -0.970943 0.239310
vn 0.958428 -0.261082 -0.115115
vn 0.629757 -0.775247 0.048967
vn 0.000000 -0.970943 0.239310
vn 0.629757 -0.775247 0.048967
vn 0.000000 -0.982016 0.188797
vn 0.000000 -0.995328 0.096551
vn 0.000000 -0.993920 -0.110104
vn 0.911409 -0.411431 -0.007600
vn 0.911409 -0.411431 -0.007600
vn 0.000000 -0.993920 -0.110104
vn 0.937218 -0.325747 -0.124548
vn 0.000000 0.900856 -0.434118
vn 0.793133 0.545892 -0.270080
vn 0.000000 0.947973 -0.318350
vn 0.000000 0.947973 -0.318350
vn 0.793133 0.545892 -0.270080
vn 0.782124 0.583848 -0.217724
vn 0.723062 0.680556 -0.118426
vn 0.000000 0.988529 -0.151030
vn 0.782124 0.583848 -0.217724
vn 0.782124 0.583848 -0.217724
vn 0.000000 0.988529 -0.151030
vn 0.000000 0.947973 -0.318350
vn 0.000000 -0.881243 -0.472663
vn 0.000000 0.988529 -0.151030
vn 0.723062 0.680556 -0.118426
vn 0.000000 -0.881243 -0.472663
vn 0.723062 0.680556 -0.118426
vn 0.937218 -0.325747 -0.124548
vn 0.937218 -0.325747 -0.124548
vn 0.000000 -0.993920 -0.110104
vn 0.000000 -0.881243 -0.472663
vn -0.833049 0.318590 -0.452250
vn -0.494021 0.178893 -0.850847
vn -0.510574 0.567115 -0.646293
vn -0.833049 0.318590 -0.452250
vn -0.510574 0.567115 -0.646293
vn -0.403643 0.719399 -0.565276
vn -0.403643 0.719399 -0.565276
vn -0.510574 0.567115 -0.646293
vn -0.296675 0.750139 -0.590995
vn -0.403643 0.719399 -0.565276
vn -0.296675 0.750139 -0.590995
vn 0.000000 0.859569 -0.511019
vn 0.000000 0.859569 -0.511019
vn -0.296675 0.750139 -0.590995
vn 0.000000 0.761082 -0.648656
vn -0.953730 -0.235837 -0.186496
vn -0.702268 -0.427534 -0.569240
vn -0.833049 0.318590 -0.452250
vn -0.833049 0.318590 -0.452250
vn -0.702268 -0.427534 -0.569240
vn -0.494021 0.178893 -0.850847
vn -0.515996 -0.848348 -0.118551
vn -0.702268 -0.427534 -0.569240
vn -0.631362 -0.775390 0.012345
vn -0.631362 -0.775390 0.012345
vn -0.702268 -0.427534 -0.569240
vn -0.953730 -0.235837 -0.186496
vn -0.750089 0.530313 -0.395139
vn -0.833049 0.318590 -0.452250
vn 0.000000 0.849275 -0.527950
vn 0.000000 0.849275 -0.527950
vn -0.833049 0.318590 -0.452250
vn -0.403643 0.719399 -0.565276
vn -0.403643 0.719399 -0.565276
vn 0.000000 0.859569 -0.511019
vn 0.000000 0.849275 -0.527950
vn -0.958428 -0.261082 -0.115115
vn -0.953730 -0.235837 -0.186496
vn -0.750089 0.530313 -0.395139
vn -0.750089 0.530313 -0.395139
vn -0.953730 -0.235837 -0.186496
vn -0.833049 0.318590 -0.452250
vn -0.629757 -0.775247 0.048967
vn -0.631362 -0.775390 0.012345
vn -0.958428 -0.261082 -0.115115
vn -0.958428 -0.261082 -0.115115
vn -0.631362 -0.775390 0.012345
vn -0.953730 -0.235837 -0.186496
vn -0.515996 -0.848348 -0.118551
vn -0.631362 -0.775390 0.012345
vn 0.000000 -0.998249 -0.059159
vn 0.000000 -0.998249 -0.059159
vn -0.631362 -0.775390 0.012345
vn 0.000000 -0.996908 0.078574
vn 0.000000 -0.996908 0.078574
vn -0.631362 -0.775390 0.012345
vn 0.000000 -0.982016 0.188797
vn 0.000000 -0.982016 0.188797
vn -0.631362 -0.775390 0.012345
vn -0.629757 -0.775247 0.048967
vn -0.750089 0.530313 -0.395139
vn -0.797038 0.500121 -0.338541
vn -0.958428 -0.261082 -0.115115
vn -0.958428 -0.261082 -0.115115
vn -0.797038 0.500121 -0.338541
vn -0.910608 -0.409606 0.054915
vn -0.797038 0.500121 -0.338541
vn -0.793133 0.545891 -0.270080
vn -0.910608 -0.409606 0.054915
vn -0.910608 -0.409606 0.054915
vn -0.793133 0.545891 -0.270080
vn -0.924625 -0.377871 0.047770
vn -0.793133 0.545891 -0.270080
vn -0.782124 0.583848 -0.217724
vn -0.924625 -0.377871 0.047770
vn -0.924625 -0.377871 0.047770
vn -0.782124 0.583848 -0.217724
vn -0.911409 -0.411431 -0.007600
vn -0.723062 0.680556 -0.118426
vn -0.937218 -0.325747 -0.124548
vn -0.782124 0.583848 -0.217724
vn -0.782124 0.583848 -0.217724
vn -0.937218 -0.325747 -0.124548
vn -0.911409 -0.411431 -0.007600
vn 0.000000 0.849275 -0.527950
vn 0.000000 0.876046 -0.482228
vn -0.750089 0.530313 -0.395139
vn -0.750089 0.530313 -0.395139
vn 0.000000 0.876046 -0.482228
vn -0.797038 0.500121 -0.338541
vn 0.000000 0.876046 -0.482228
vn 0.000000 0.900856 -0.434118
vn -0.797038 0.500121 -0.338541
vn -0.797038 0.500121 -0.338541
vn 0.000000 0.900856 -0.434118
vn -0.793133 0.545891 -0.270080
vn 0.000000 -0.970191 0.242342
vn -0.924625 -0.377871 0.047770
vn 0.000000 -0.995328 0.096551
vn 0.000000 -0.995328 0.096551
vn -0.924625 -0.377871 0.047770
vn -0.911409 -0.411431 -0.007600
vn 0.000000 -0.970943 0.239310
vn -0.910608 -0.409606 0.054915
vn 0.000000 -0.970191 0.242342
vn 0.000000 -0.970191 0.242342
vn -0.910608 -0.409606 0.054915
vn -0.924625 -0.377871 0.047770
vn -0.629757 -0.775247 0.048967
vn -0.958428 -0.261082 -0.115115
vn 0.000000 -0.970943 0.239310
vn 0.000000 -0.970943 0.239310
vn -0.958428 -0.261082 -0.115115
vn -0.910608 -0.409606 0.054915
vn 0.000000 -0.970943 0.239310
vn 0.000000 -0.982016 0.188797
vn -0.629757 -0.775247 0.048967
vn 0.000000 -0.995328 0.096551
vn -0.911409 -0.411431 -0.007600
vn 0.000000 -0.993920 -0.110104
vn 0.000000 -0.993920 -0.110104
vn -0.911409 -0.411431 -0.007600
vn -0.937218 -0.325747 -0.124548
vn -0.782124 0.583848 -0.217724
vn -0.793133 0.545891 -0.270080
vn 0.000000 0.947973 -0.318350
vn 0.000000 0.947973 -0.318350
vn -0.793133 0.545891 -0.270080
vn 0.000000 0.900856 -0.434118
vn 0.000000 0.947973 -0.318350
vn 0.000000 0.988529 -0.151030
vn -0.782124 0.583848 -0.217724
vn -0.782124 0.583848 -0.217724
vn 0.000000 0.988529 -0.151030
vn -0.723062 0.680556 -0.118426
vn 0.000000 -0.881243 -0.472663
vn -0.723062 0.680556 -0.118426
vn 0.000000 0.988529 -0.151030
vn 0.000000 -0.881243 -0.472663
vn -0.937218 -0.325747 -0.124548
vn -0.723062 0.680556 -0.118426
vn -0.937218 -0.325747 -0.124548
vn 0.000000 -0.881243 -0.472663
vn 0.000000 -0.993920 -0.110104
vn 0.400965 0.406039 0.821194
vn 0.400965 0.406039 0.821194
vn 0.400965 0.406039 0.821194
vn 0.372407 0.440451 0.816894
vn 0.372407 0.440451 0.816894
vn 0.372407 0.440451 0.816894
vn 0.109001 0.565457 0.817544
vn 0.109001 0.565457 0.817544
vn 0.109001 0.565457 0.817544
vn 0.502086 -0.100634 0.858943
vn 0.502086 -0.100634 0.858943
vn 0.502086 -0.100634 0.858943
vn 0.523405 -0.052035 0.850494
vn 0.523405 -0.052035 0.850494
vn 0.523405 -0.052035 0.850494
vn 0.109493 -0.343976 0.932573
vn 0.109493 -0.343976 0.932573
vn 0.109493 -0.343976 0.932573
vn -0.400965 0.406039 0.821194
vn -0.400965 0.406039 0.821194
vn -0.400965 0.406039 0.821194
vn -0.372407 0.440451 0.816894
vn -0.372407 0.440451 0.816894
vn -0.372407 0.440451 0.816894
vn -0.109001 0.565457 0.817544
vn -0.109001 0.565457 0.817544
vn -0.109001 0.565457 0.817544
vn -0.502086 -0.100634 0.858943
vn -0.502086 -0.100634 0.858942
vn -0.502086 -0.100634 0.858942
vn -0.523405 -0.052035 0.850494
vn -0.523405 -0.052035 0.850494
vn -0.523405 -0.052035 0.850494
vn -0.109493 -0.343976 0.932573
vn -0.109493 -0.343976 0.932573
vn -0.109493 -0.343976 0.932573
s off
g bossTail
usemtl lambert2SG
f 1/1/1 44/2/2 45/3/3
f 46/4/4 44/2/5 2/5/6
f 2/5/7 44/2/8 1/1/9
f 47/6/10 46/4/11 3/7/12
f 3/7/13 46/4/14 2/5/15
f 4/8/16 1/1/17 48/9/18
f 48/9/19 1/1/20 45/3/21
f 4/8/22 48/9/23 5/10/24
f 5/10/25 48/9/26 49/11/27
f 2/5/28 1/1/29 7/12/30
f 7/12/31 1/1/32 6/13/33
f 2/5/34 7/12/35 3/7/36
f 1/1/37 4/8/38 6/13/39
f 6/13/40 4/8/41 8/14/42
f 9/15/43 8/14/44 5/10/45
f 5/10/46 8/14/47 4/8/48
f 10/16/49 5/10/50 50/17/51
f 50/17/52 5/10/53 49/11/54
f 9/15/55 5/10/56 11/18/57
f 11/18/58 5/10/59 10/16/60
f 6/13/61 8/14/62 13/19/63
f 13/19/64 8/14/65 12/20/66
f 13/19/67 12/20/68 15/21/69
f 15/21/70 12/20/71 14/22/72
f 15/21/73 14/22/74 17/23/75
f 17/23/76 14/22/77 16/24/78
f 19/25/79 17/23/80 18/26/81
f 18/26/82 17/23/83 16/24/84
f 7/12/85 6/13/86 20/27/87
f 20/27/88 6/13/89 13/19/90
f 20/27/91 13/19/92 25/28/93
f 25/28/94 13/19/95 15/21/96
f 16/24/97 14/22/98 21/29/99
f 21/29/100 14/22/101 22/30/102
f 14/22/103 12/20/104 22/30/105
f 22/30/106 12/20/107 23/31/108
f 12/20/109 8/14/110 23/31/111
f 23/31/112 8/14/113 9/15/114
f 23/31/115 9/15/116 11/18/117
f 21/29/118 24/32/119 16/24/120
f 16/24/121 24/32/122 18/26/123
f 25/28/124 15/21/125 26/33/126
f 26/33/127 15/21/128 17/23/129
f 19/25/130 27/34/131 17/23/132
f 17/23/133 27/34/134 26/33/135
f 28/35/136 27/34/137 19/25/138
f 28/35/139 19/25/140 18/26/141
f 18/26/142 24/32/143 28/35/144
f 29/36/145 51/37/146 52/38/147
f 29/36/148 52/38/149 30/39/150
f 30/39/151 52/38/152 53/40/153
f 30/39/154 53/40/155 3/41/156
f 3/41/157 53/40/158 47/42/159
f 31/43/160 54/44/161 29/36/162
f 29/36/163 54/44/164 51/37/165
f 55/45/166 54/44/167 32/46/168
f 32/46/169 54/44/170 31/43/171
f 33/47/172 29/36/173 7/48/174
f 7/48/175 29/36/176 30/39/177
f 30/39/178 3/41/179 7/48/180
f 34/49/181 31/43/182 33/47/183
f 33/47/184 31/43/185 29/36/186
f 35/50/187 32/46/188 34/49/189
f 34/49/190 32/46/191 31/43/192
f 55/45/193 32/46/194 50/17/195
f 50/17/196 32/46/197 10/16/198
f 10/16/199 32/46/200 11/18/201
f 11/18/202 32/46/203 35/50/204
f 33/47/205 37/51/206 34/49/207
f 34/49/208 37/51/209 36/52/210
f 37/51/211 39/53/212 36/52/213
f 36/52/214 39/53/215 38/54/216
f 39/53/217 41/55/218 38/54/219
f 38/54/220 41/55/221 40/56/222
f 42/57/223 43/58/224 41/55/225
f 41/55/226 43/58/227 40/56/228
f 7/48/229 20/59/230 33/47/231
f 33/47/232 20/59/233 37/51/234
f 20/59/235 25/60/236 37/51/237
f 37/51/238 25/60/239 39/53/240
f 22/30/241 38/54/242 21/29/243
f 21/29/244 38/54/245 40/56/246
f 23/31/247 36/52/248 22/30/249
f 22/30/250 36/52/251 38/54/252
f 35/50/253 34/49/254 23/31/255
f 23/31/256 34/49/257 36/52/258
f 23/31/259 11/18/260 35/50/261
f 21/29/262 40/56/263 24/32/264
f 24/32/265 40/56/266 43/58/267
f 41/55/268 39/53/269 26/61/270
f 26/61/271 39/53/272 25/60/273
f 26/61/274 27/62/275 41/55/276
f 41/55/277 27/62/278 42/57/279
f 28/35/280 42/57/281 27/62/282
f 28/35/283 43/58/284 42/57/285
f 43/58/286 28/35/287 24/32/288
f 45/63/289 44/64/290 56/65/291
f 44/66/292 46/67/293 56/68/294
f 46/69/295 47/70/296 56/71/297
f 48/72/298 45/73/299 56/74/300
f 49/75/301 48/76/302 56/77/303
f 50/78/304 49/79/305 56/80/306
f 52/81/307 51/82/308 56/83/309
f 53/84/310 52/85/311 56/86/312
f 47/87/313 53/88/314 56/89/315
f 51/90/316 54/91/317 56/92/318
f 54/93/319 55/94/320 56/95/321
f 55/96/322 50/97/323 56/98/324
