# This file uses centimeters as units for non-parametric coordinates.

mtllib bossRLegTop.mtl
g default
v -92.287038 34.522484 21.650076
v -84.377492 50.812370 -13.469752
v -93.321889 8.232033 32.905088
v -93.261709 -31.612778 30.125158
v -70.004430 -60.667625 20.487188
v -72.779760 28.448174 -46.989359
v -59.810277 -2.438454 -68.431834
v -44.431142 -40.316002 -55.069224
v -109.686193 22.677895 -21.259196
v -108.584173 14.389992 12.650717
v -99.421178 9.070107 -48.814509
v -95.353887 -15.508873 -67.311045
v -79.695226 -48.566528 -65.425944
v -85.105291 -68.309540 -36.150202
v -54.403127 -61.797005 -21.535960
v -90.135061 -71.332680 -3.478785
v -99.862005 -60.728737 8.669973
v -117.730291 -1.096931 -26.603922
v -117.153219 -14.124550 2.427770
v -116.462789 -22.788719 -40.698588
v -118.366948 -37.995338 -14.603556
v -106.680120 -69.986061 -13.737253
v -63.570714 51.360481 41.978506
v -66.989843 71.332680 8.422231
v -57.315175 69.267860 -18.052454
v -66.898275 14.692970 52.735151
v -60.242757 -17.346687 55.542463
v -45.142232 -46.075340 57.339170
v -42.998449 45.027718 -46.607432
v -22.865621 10.871513 -66.242197
v -14.303056 -31.176208 -66.163386
v -17.580491 -45.628136 -44.693217
v -23.221578 -62.889694 -10.007746
v -30.681112 -61.053467 35.857565
v -1.666909 -0.134697 0.009054
v -1.666909 -0.134697 0.009039
v -133.340047 -43.859169 -39.654444
vt 0.539124 0.636277
vt 0.571455 0.635397
vt 0.549897 0.666232
vt 0.579818 0.662361
vt 0.594377 0.640793
vt 0.515402 0.660032
vt 0.532651 0.680080
vt 0.518944 0.708751
vt 0.497435 0.681342
vt 0.477388 0.697315
vt 0.498062 0.730361
vt 0.619743 0.660399
vt 0.605275 0.683842
vt 0.627097 0.706482
vt 0.645206 0.680725
vt 0.655353 0.725451
vt 0.668082 0.700037
vt 0.676529 0.714777
vt 0.550135 0.687320
vt 0.574143 0.693285
vt 0.593723 0.707726
vt 0.606648 0.730499
vt 0.634041 0.749718
vt 0.677735 0.750631
vt 0.657907 0.768046
vt 0.517657 0.750219
vt 0.489212 0.766130
vt 0.516602 0.777058
vt 0.522656 0.737615
vt 0.548492 0.711855
vt 0.571238 0.713230
vt 0.575879 0.732722
vt 0.550809 0.735293
vt 0.532361 0.756074
vt 0.466865 0.719151
vt 0.463758 0.757317
vt 0.698588 0.734299
vt 0.000000 0.000000
vt 1.000000 0.000000
vt 0.500000 1.000000
vt 0.000000 0.000000
vt 1.000000 0.000000
vt 0.500000 1.000000
vt 0.000000 0.000000
vt 1.000000 0.000000
vt 0.500000 1.000000
vt 0.000000 0.000000
vt 1.000000 0.000000
vt 0.500000 1.000000
vt 0.000000 0.000000
vt 1.000000 0.000000
vt 1.000000 1.000000
vt 0.000000 1.000000
vt 0.000000 0.000000
vt 1.000000 0.000000
vt 1.000000 1.000000
vt 0.000000 1.000000
vt 0.000000 0.000000
vt 1.000000 0.000000
vt 0.500000 1.000000
vt 0.000000 0.000000
vt 1.000000 0.000000
vt 0.500000 1.000000
vt 0.000000 0.000000
vt 1.000000 0.000000
vt 0.500000 1.000000
vt 0.000000 0.000000
vt 1.000000 0.000000
vt 0.500000 1.000000
vt 0.000000 0.000000
vt 1.000000 0.000000
vt 0.500000 1.000000
vt 0.000000 0.000000
vt 1.000000 0.000000
vt 0.500000 1.000000
vt 0.000000 0.000000
vt 1.000000 0.000000
vt 0.500000 1.000000
vt 0.000000 0.000000
vt 1.000000 0.000000
vt 0.500000 1.000000
vt 0.000000 0.000000
vt 1.000000 0.000000
vt 0.500000 1.000000
vt 0.000000 0.000000
vt 1.000000 0.000000
vt 0.500000 1.000000
vt 0.000000 0.000000
vt 1.000000 0.000000
vt 0.500000 1.000000
vt 0.000000 0.000000
vt 1.000000 0.000000
vt 0.500000 1.000000
vn -0.766469 0.485785 0.420164
vn -0.771531 0.614297 0.165466
vn -0.749875 0.513555 0.417072
vn -0.749875 0.513555 0.417072
vn -0.771531 0.614297 0.165466
vn -0.684786 0.677442 -0.268592
vn -0.684786 0.677442 -0.268592
vn -0.771531 0.614297 0.165466
vn -0.564091 0.587653 -0.580057
vn -0.766469 0.485785 0.420164
vn -0.749875 0.513555 0.417072
vn -0.864167 0.091413 0.494833
vn -0.864167 0.091413 0.494833
vn -0.749875 0.513555 0.417072
vn -0.681327 0.076490 0.727972
vn -0.609299 -0.284869 0.740003
vn -0.809320 -0.308197 0.500016
vn -0.681327 0.076490 0.727972
vn -0.681327 0.076490 0.727972
vn -0.809320 -0.308197 0.500016
vn -0.864167 0.091413 0.494833
vn -0.740549 -0.612530 0.276396
vn -0.809320 -0.308197 0.500016
vn -0.183504 -0.873318 0.451268
vn -0.183504 -0.873318 0.451268
vn -0.809320 -0.308197 0.500016
vn -0.609299 -0.284869 0.740003
vn -0.314064 0.544129 -0.778002
vn -0.373831 0.569087 -0.732387
vn -0.564091 0.587653 -0.580057
vn -0.564091 0.587653 -0.580057
vn -0.373831 0.569087 -0.732387
vn -0.684786 0.677442 -0.268592
vn -0.373831 0.569087 -0.732387
vn -0.314064 0.544129 -0.778002
vn -0.069902 0.163845 -0.984006
vn -0.069902 0.163845 -0.984006
vn -0.314064 0.544129 -0.778002
vn -0.494021 0.178893 -0.850847
vn 0.127811 -0.633011 -0.763519
vn -0.069902 0.163845 -0.984006
vn -0.702268 -0.427534 -0.569240
vn -0.702268 -0.427534 -0.569240
vn -0.069902 0.163845 -0.984006
vn -0.494021 0.178893 -0.850847
vn 0.127811 -0.633011 -0.763519
vn -0.702268 -0.427534 -0.569240
vn -0.208897 -0.869307 -0.447959
vn -0.877490 0.318072 0.358946
vn -0.749875 0.513555 0.417072
vn -0.778409 0.586024 -0.225068
vn -0.778409 0.586024 -0.225068
vn -0.749875 0.513555 0.417072
vn -0.684786 0.677442 -0.268592
vn -0.533286 0.514748 -0.671297
vn -0.778409 0.586024 -0.225068
vn -0.373831 0.569087 -0.732387
vn -0.373831 0.569087 -0.732387
vn -0.778409 0.586024 -0.225068
vn -0.684786 0.677442 -0.268592
vn -0.373831 0.569087 -0.732387
vn -0.069902 0.163845 -0.984006
vn -0.533286 0.514748 -0.671297
vn -0.533286 0.514748 -0.671297
vn -0.069902 0.163845 -0.984006
vn -0.286318 0.404143 -0.868729
vn 0.127811 -0.633011 -0.763519
vn 0.555004 -0.387109 -0.736286
vn -0.069902 0.163845 -0.984006
vn -0.069902 0.163845 -0.984006
vn 0.555004 -0.387109 -0.736286
vn -0.286318 0.404143 -0.868729
vn 0.127811 -0.633011 -0.763519
vn 0.173187 -0.959864 -0.220607
vn 0.555004 -0.387109 -0.736286
vn 0.555004 -0.387109 -0.736286
vn 0.173187 -0.959864 -0.220607
vn 0.479724 -0.864925 -0.147548
vn -0.183504 -0.873318 0.451268
vn 0.099488 -0.980483 0.169576
vn 0.173187 -0.959864 -0.220607
vn 0.173187 -0.959864 -0.220607
vn 0.099488 -0.980483 0.169576
vn 0.479724 -0.864925 -0.147548
vn -0.639722 -0.472030 0.606583
vn -0.183504 -0.873318 0.451268
vn -0.609299 -0.284869 0.740003
vn -0.681327 0.076490 0.727972
vn -0.749875 0.513555 0.417072
vn -0.877490 0.318072 0.358946
vn -0.921532 -0.025233 0.387482
vn -0.877490 0.318072 0.358946
vn -0.956608 0.232579 -0.175522
vn -0.956608 0.232579 -0.175522
vn -0.877490 0.318072 0.358946
vn -0.778409 0.586024 -0.225068
vn -0.933656 0.268692 -0.236838
vn -0.963481 -0.163073 0.212395
vn -0.956608 0.232579 -0.175522
vn -0.956608 0.232579 -0.175522
vn -0.963481 -0.163073 0.212395
vn -0.921532 -0.025233 0.387482
vn -0.956608 0.232579 -0.175522
vn -0.533286 0.514748 -0.671297
vn -0.933656 0.268692 -0.236838
vn -0.933656 0.268692 -0.236838
vn -0.533286 0.514748 -0.671297
vn -0.286318 0.404143 -0.868729
vn -0.778409 0.586024 -0.225068
vn -0.533286 0.514748 -0.671297
vn -0.956608 0.232579 -0.175522
vn -0.877490 0.318072 0.358946
vn -0.921532 -0.025233 0.387482
vn -0.681327 0.076490 0.727972
vn -0.681327 0.076490 0.727972
vn -0.921532 -0.025233 0.387482
vn -0.609299 -0.284869 0.740003
vn -0.963481 -0.163073 0.212395
vn -0.639722 -0.472030 0.606583
vn -0.921532 -0.025233 0.387482
vn -0.921532 -0.025233 0.387482
vn -0.639722 -0.472030 0.606583
vn -0.609299 -0.284869 0.740003
vn -0.639722 -0.472030 0.606583
vn -0.963481 -0.163073 0.212395
vn -0.621087 -0.728557 0.288885
vn -0.621087 -0.728557 0.288885
vn 0.479724 -0.864925 -0.147548
vn 0.099488 -0.980483 0.169576
vn 0.099488 -0.980483 0.169576
vn -0.639722 -0.472030 0.606583
vn -0.621087 -0.728557 0.288885
vn -0.232728 -0.968687 0.086509
vn -0.183504 -0.873318 0.451268
vn -0.089025 -0.979013 -0.183327
vn -0.089025 -0.979013 -0.183327
vn -0.183504 -0.873318 0.451268
vn 0.173187 -0.959864 -0.220607
vn -0.232728 -0.968687 0.086509
vn -0.740549 -0.612530 0.276396
vn -0.183504 -0.873318 0.451268
vn 0.127811 -0.633011 -0.763519
vn -0.208897 -0.869307 -0.447959
vn 0.173187 -0.959864 -0.220607
vn 0.173187 -0.959864 -0.220607
vn -0.208897 -0.869307 -0.447959
vn -0.089025 -0.979013 -0.183327
vn -0.183504 -0.873318 0.451268
vn -0.639722 -0.472030 0.606583
vn 0.099488 -0.980483 0.169576
vn 0.721762 0.624603 0.298213
vn 0.721762 0.624603 0.298213
vn 0.721762 0.624602 0.298213
vn 0.733057 0.644413 0.217622
vn 0.733057 0.644413 0.217622
vn 0.733057 0.644413 0.217622
vn 0.642312 0.161503 0.749234
vn 0.642312 0.161503 0.749234
vn 0.642312 0.161503 0.749234
vn 0.643006 0.198384 0.739721
vn 0.643006 0.198384 0.739721
vn 0.643006 0.198384 0.739721
vn 0.586620 0.353900 0.728445
vn 0.586619 0.353900 0.728445
vn 0.586620 0.353900 0.728445
vn 0.586619 0.353900 0.728445
vn 0.789422 0.602806 -0.115922
vn 0.789422 0.602806 -0.115922
vn 0.789422 0.602806 -0.115922
vn 0.789422 0.602806 -0.115922
vn 0.805965 0.568974 -0.163365
vn 0.805965 0.568974 -0.163365
vn 0.805965 0.568974 -0.163365
vn 0.943573 0.191642 -0.270082
vn 0.943573 0.191642 -0.270082
vn 0.943573 0.191642 -0.270082
vn 0.956520 -0.287746 -0.047673
vn 0.956520 -0.287746 -0.047673
vn 0.956520 -0.287746 -0.047673
vn 0.924596 -0.343774 0.164140
vn 0.924596 -0.343774 0.164140
vn 0.924596 -0.343774 0.164140
vn 0.813434 -0.046218 0.579818
vn 0.813434 -0.046218 0.579818
vn 0.813434 -0.046218 0.579818
vn 0.946098 -0.323799 -0.007272
vn 0.946098 -0.323799 -0.007272
vn 0.946098 -0.323799 -0.007272
vn -0.436759 -0.256059 -0.862366
vn -0.436759 -0.256059 -0.862366
vn -0.436759 -0.256059 -0.862366
vn -0.338810 -0.749838 -0.568288
vn -0.338810 -0.749838 -0.568288
vn -0.338810 -0.749838 -0.568288
vn -0.737486 0.605540 0.299058
vn -0.737486 0.605540 0.299058
vn -0.737486 0.605540 0.299058
vn -0.718902 0.555101 -0.418382
vn -0.718902 0.555101 -0.418382
vn -0.718902 0.555101 -0.418382
vn -0.795232 -0.275893 0.539897
vn -0.795232 -0.275893 0.539897
vn -0.795232 -0.275893 0.539897
vn -0.383156 -0.817502 -0.429979
vn -0.383156 -0.817502 -0.429979
vn -0.383156 -0.817502 -0.429979
s off
g bossRLegTop
usemtl lambert2SG
f 23/1/1 24/2/2 1/3/3
f 1/3/4 24/2/5 2/4/6
f 2/4/7 24/2/8 25/5/9
f 23/1/10 1/3/11 26/6/12
f 26/6/13 1/3/14 3/7/15
f 4/8/16 27/9/17 3/7/18
f 3/7/19 27/9/20 26/6/21
f 28/10/22 27/9/23 5/11/24
f 5/11/25 27/9/26 4/8/27
f 29/12/28 6/13/29 25/5/30
f 25/5/31 6/13/32 2/4/33
f 6/13/34 29/12/35 7/14/36
f 7/14/37 29/12/38 30/15/39
f 8/16/40 7/14/41 31/17/42
f 31/17/43 7/14/44 30/15/45
f 8/16/46 31/17/47 32/18/48
f 10/19/49 1/3/50 9/20/51
f 9/20/52 1/3/53 2/4/54
f 11/21/55 9/20/56 6/13/57
f 6/13/58 9/20/59 2/4/60
f 6/13/61 7/14/62 11/21/63
f 11/21/64 7/14/65 12/22/66
f 8/16/67 13/23/68 7/14/69
f 7/14/70 13/23/71 12/22/72
f 8/16/73 15/24/74 13/23/75
f 13/23/76 15/24/77 14/25/78
f 5/11/79 16/26/80 15/27/81
f 15/27/82 16/26/83 14/28/84
f 17/29/85 5/11/86 4/8/87
f 3/7/88 1/3/89 10/19/90
f 19/30/91 10/19/92 18/31/93
f 18/31/94 10/19/95 9/20/96
f 20/32/97 21/33/98 18/31/99
f 18/31/100 21/33/101 19/30/102
f 18/31/103 11/21/104 20/32/105
f 20/32/106 11/21/107 12/22/108
f 9/20/109 11/21/110 18/31/111
f 10/19/112 19/30/113 3/7/114
f 3/7/115 19/30/116 4/8/117
f 21/33/118 17/29/119 19/30/120
f 19/30/121 17/29/122 4/8/123
f 17/29/124 21/33/125 22/34/126
f 22/34/127 14/28/128 16/26/129
f 16/26/130 17/29/131 22/34/132
f 34/35/133 5/11/134 33/36/135
f 33/36/136 5/11/137 15/27/138
f 34/35/139 28/10/140 5/11/141
f 8/16/142 32/18/143 15/24/144
f 15/24/145 32/18/146 33/37/147
f 5/11/148 17/29/149 16/26/150
f 24/38/151 23/39/152 35/40/153
f 25/41/154 24/42/155 35/43/156
f 23/44/157 26/45/158 35/46/159
f 26/47/160 27/48/161 35/49/162
f 27/50/163 28/51/164 36/52/165 35/53/166
f 29/54/167 25/55/168 35/56/169 36/57/170
f 30/58/171 29/59/172 36/60/173
f 31/61/174 30/62/175 36/63/176
f 32/64/177 31/65/178 36/66/179
f 34/67/180 33/68/181 36/69/182
f 28/70/183 34/71/184 36/72/185
f 33/73/186 32/74/187 36/75/188
f 12/76/189 13/77/190 37/78/191
f 13/79/192 14/80/193 37/81/194
f 21/82/195 20/83/196 37/84/197
f 20/85/198 12/86/199 37/87/200
f 22/88/201 21/89/202 37/90/203
f 14/91/204 22/92/205 37/93/206
